{"title":"They Must East (2006) WEBRip","uid":8397165,"size":1113981193,"categoryP":"video","categoryS":"movies","magnet":"?xt=urn:btih:bb3393c464e918b8ca466ee1e4bb92fc059ecb23&amp;dn=They+Must+East+%282006%29+WEBRip&amp;tr=udp%3A%2F%2Ftracker.openbittorrent.com%3A80&amp;tr=udp%3A%2F%2Fopen.demonii.com%3A1337&amp;tr=udp%3A%2F%2Ftracker.coppersurfer.tk%3A6969&amp;tr=udp%3A%2F%2Fexodus.desync.com%3A6969","seeders":0,"leechers":0,"uploader":"RadioResearch","files":3,"time":1366602404,"description":"*******************************************************************************\n                          They Must Eat (2006) WEBRip\n*******************************************************************************\n\n-------------------------------------------------------------------------------\n                              General Information\n-------------------------------------------------------------------------------\nType.................: Movie\n\n\n\nVideo Format.........: AVI\nVideo Bitrate........: 1545\nResolution...........: 640 x 360\nColor................: 8 bit\nFPS..................: 24.000\nSource...............: WEB 16:9\nOriginal Format......: NTSC\nGenre................: Horror\nIMDb Rating..........: 3.9\nMovie Information....: http://www.imdb.com/title/tt0897286/\n\n-------------------------------------------------------------------------------\n                               Post Information\n-------------------------------------------------------------------------------\nPosted by............: RadioResearch\nPosted on............: 4/22/2013\n\n-------------------------------------------------------------------------------\n                                 Release Notes\n-------------------------------------------------------------------------------\nSEEDBOX SUPPORTED!!\n\nSanford Denton will forever be a socially inept loser. Always the target of \nbullies and approaching his 40th birthday, his only girlfriend of 3 years gives \nhim the boot. Stuck in a dead-end job, no ambition, and on the edge of a \nbreakdown... he begs his last living relative, Uncle Alistair, to take him in. \nAlistair keeps to himself and and is not very fond of his sheepish nephew. But, \ndue to failing health, he accepts Sanford into his home... hoping to enlist him \nto take on the &quot;family business&quot; when he passes away. The &quot;family business&quot; is \nstaving off a pack of ravenous ghouls that dwell in the thick woods surrounding \nthe estate, and they crave human flesh. When Uncle Alistair passes away, Sanford \nis now in charge of the grisly task. However, Sanford decides to &quot;train&quot; the \ndevilish creatures to do his bidding... exacting vengeance on those that have \nhumiliated time and time again. When demons are hungry for blood... They Must \nEat! \n\nEnjoy!\n\nRadioResearch\n\nGeneral\nComplete name                            : G:They Must East (2006) WEBRipThey \nMust Eat.avi\nFormat                                   : AVI\nFormat/Info                              : Audio Video Interleave\nFile size                                : 1.04 GiB\nDuration                                 : 1h 36mn\nOverall bit rate                         : 1 545 Kbps\n\nVideo\nID                                       : 0\nFormat                                   : mp43\nCodec ID                                 : mp43\nDuration                                 : 1h 36mn\nBit rate                                 : 1 405 Kbps\nWidth                                    : 640 pixels\nHeight                                   : 360 pixels\nDisplay aspect ratio                     : 16:9\nFrame rate                               : 24.000 fps\nBits/(Pixel*Frame)                       : 0.254\nStream size                              : 966 MiB (91%)\n\nAudio\nID                                       : 1\nFormat                                   : MPEG Audio\nFormat version                           : Version 1\nFormat profile                           : Layer 3\nMode                                     : Joint stereo\nMode extension                           : MS Stereo\nCodec ID                                 : 55\nCodec ID/Hint                            : MP3\nDuration                                 : 1h 36mn\nBit rate mode                            : Constant\nBit rate                                 : 128 Kbps\nChannel(s)                               : 2 channels\nSampling rate                            : 44.1 KHz\nCompression mode                         : Lossy\nStream size                              : 88.0 MiB (8%)\nAlignment                                : Aligned on interleaves\nInterleave, duration                     : 26 ms (0.63 video frame)\nWriting library                          : LAME3.98.2\n\n\n\n\n-------------------------------------------------------------------------------\nGenerated with Cool NFO Creator - http://fly.to/coolbeans\n-------------------------------------------------------------------------------\n","torrent":{"xt":"urn:btih:bb3393c464e918b8ca466ee1e4bb92fc059ecb23","amp;dn":"They+Must+East+%282006%29+WEBRip","amp;tr":["udp%3A%2F%2Ftracker.openbittorrent.com%3A80","udp%3A%2F%2Fopen.demonii.com%3A1337","udp%3A%2F%2Ftracker.coppersurfer.tk%3A6969","udp%3A%2F%2Fexodus.desync.com%3A6969"],"infoHash":"bb3393c464e918b8ca466ee1e4bb92fc059ecb23","infoHashBuffer":{"type":"Buffer","data":[187,51,147,196,100,233,24,184,202,70,110,225,228,187,146,252,5,158,203,35]},"announce":[],"urlList":[]}}